<?xml version="1.0" encoding="utf-8"?>
<!-- Generator: Adobe Illustrator 26.0.3, SVG Export Plug-In . SVG Version: 6.00 Build 0)  -->
<svg version="1.1" id="Ebene_1" xmlns="http://www.w3.org/2000/svg" xmlns:xlink="http://www.w3.org/1999/xlink" x="0px" y="0px"
	 viewBox="0 0 1190.6 841.9" style="enable-background:new 0 0 1190.6 841.9;" xml:space="preserve">
<style type="text/css">
	.st0{fill:#FFFFFF;stroke:#000000;stroke-miterlimit:10;}
	.st1{font-family:'MyriadPro-Regular';}
	.st2{font-size:12px;}
	.st3{fill:#002255;}
	.st4{fill:#FF0000;}
</style>
<rect x="74.4" y="36.6" class="st0" width="1105.5" height="768.2"/>
<text transform="matrix(1 0 0 1 74.4 22.7697)" class="st1 st2">Plot limits - später löschen. Schriftart JetBrains light verwenden.</text>
<path id="path3002" class="st3" d="M187.8,217.5c-44.5,0-80.5,36.1-80.5,80.5s36.1,80.5,80.5,80.5c8.5,0,16.8-1.4,24.5-3.8v-40.2
	c-6.7,3.9-14.5,6.1-22.9,6.1c-24.5,0-44.3-19.1-44.3-42.6c0-23.5,19.8-42.6,44.3-42.6c8.4,0,16.2,2.2,22.9,6.1v-40.2
	C204.6,218.9,196.4,217.5,187.8,217.5z"/>
<polygon id="polygon9367" class="st3" points="213.1,267.4 213.1,267.4 273.1,267.4 246.2,295.3 213.1,295.3 "/>
<polygon id="polygon9369" class="st4" points="213.1,328.9 213.1,328.9 273.1,328.9 246.2,301 213.1,301 "/>
<path id="path3067" class="st3" d="M410.4,346.7c11.7-0.1,21.4-3.3,28.9-9.6c7.5-6.3,11.4-15.2,11.6-26.8
	c-0.3-11.6-4.1-20.6-11.6-26.9c-7.5-6.3-17.1-9.5-28.9-9.6c-11.7,0.1-21.4,3.3-28.9,9.6c-7.5,6.3-11.4,15.3-11.6,26.9
	c0.3,11.6,4.1,20.5,11.6,26.8C389.1,343.5,398.7,346.7,410.4,346.7z M410.4,329.9c-5.5-0.2-9.5-2.1-12-5.9
	c-2.5-3.8-3.7-8.3-3.7-13.6c0-5.4,1.2-10,3.7-13.7c2.5-3.8,6.5-5.7,12-5.9c5.5,0.2,9.5,2.1,12,5.9c2.5,3.8,3.7,8.4,3.7,13.7
	c0,5.3-1.2,9.9-3.7,13.6C419.9,327.8,415.9,329.7,410.4,329.9z"/>
<path id="path3069" class="st3" d="M460.7,345.1h24.1v-29.4c0-7.5,1.2-13,3.6-16.5c2.4-3.5,5.7-5.3,10-5.3c3.4,0.1,5.8,1.4,7.4,3.9
	c1.5,2.5,2.3,5.8,2.3,9.8v37.4h24.1v-29.4c0-7.5,1.2-13,3.6-16.5c2.4-3.5,5.7-5.3,10-5.3c3.4,0.1,5.8,1.4,7.4,3.9
	c1.5,2.5,2.3,5.8,2.3,9.8v37.4h24.1v-41c0.2-9.5-1.4-16.9-4.8-22.2c-3.4-5.3-10-8-19.8-8c-5,0-9.7,1-14,3.2
	c-4.3,2.1-7.9,5.5-10.8,10.2c-1.9-4.5-4.8-7.9-8.6-10.1c-3.8-2.2-8.2-3.3-13.2-3.3c-5.6,0-10.6,1.1-15,3.5c-4.5,2.3-7.9,6-10.4,11
	h-0.3v-12.8h-21.9L460.7,345.1z"/>
<path id="path3071" class="st3" d="M592.5,345.1h24.1v-29.4c0-7.5,1.2-13,3.6-16.5c2.4-3.5,5.7-5.3,10-5.3c3.4,0.1,5.8,1.4,7.4,3.9
	c1.5,2.5,2.3,5.8,2.3,9.8v37.4h24.1v-29.4c0-7.5,1.2-13,3.6-16.5c2.4-3.5,5.7-5.3,10-5.3c3.4,0.1,5.8,1.4,7.4,3.9
	c1.5,2.5,2.3,5.8,2.3,9.8v37.4h24.1v-41c0.2-9.5-1.4-16.9-4.8-22.2c-3.4-5.3-10-8-19.8-8c-5,0-9.7,1-14,3.2
	c-4.3,2.1-7.9,5.5-10.8,10.2c-1.9-4.5-4.8-7.9-8.6-10.1c-3.8-2.2-8.2-3.3-13.2-3.3c-5.6,0-10.6,1.1-15,3.5c-4.5,2.3-7.9,6-10.4,11
	h-0.3v-12.8h-21.9V345.1z"/>
<path id="path3073" class="st3" d="M761.4,346.7c11.7-0.1,21.4-3.3,28.9-9.6c7.5-6.3,11.4-15.2,11.6-26.8
	c-0.3-11.6-4.1-20.6-11.6-26.9c-7.5-6.3-17.1-9.5-28.9-9.6c-11.7,0.1-21.4,3.3-28.9,9.6c-7.5,6.3-11.4,15.3-11.6,26.9
	c0.3,11.6,4.1,20.5,11.6,26.8C740.1,343.5,749.7,346.7,761.4,346.7z M761.4,329.9c-5.5-0.2-9.5-2.1-12-5.9
	c-2.5-3.8-3.7-8.3-3.7-13.6c0-5.4,1.2-10,3.7-13.7c2.5-3.8,6.5-5.7,12-5.9c5.5,0.2,9.5,2.1,12,5.9c2.5,3.8,3.7,8.4,3.7,13.7
	c0,5.3-1.2,9.9-3.7,13.6C770.9,327.8,766.9,329.7,761.4,329.9z"/>
<path id="path3075" class="st3" d="M886.5,244.9h-24.2v39.6h-0.3c-3.1-3.9-6.6-6.7-10.7-8.3c-4-1.6-8.4-2.3-13.3-2.3
	c-9.7,0.4-17,4.1-22.1,11.2c-5.1,7-7.6,15-7.7,24c0,10.6,2.7,19.4,8.1,26.6c5.4,7.1,13.3,10.8,23.7,11.1c5.7-0.1,10.7-1.5,15-4.1
	c4.3-2.6,7.3-5.9,9-9.9h0.3v12.4h22.2V244.9z M833.2,309.6c0-4.8,1.3-8.8,3.8-12.1c2.5-3.3,6.1-5,10.8-5.2c4.5,0.1,8,1.8,10.7,5.1
	c2.6,3.3,4,7.7,4,13.1c-0.1,5.2-1.6,9.4-4.3,12.7c-2.8,3.3-6.2,5-10.4,5.1c-4.6-0.1-8.1-1.8-10.7-5.2
	C834.5,319.7,833.2,315.2,833.2,309.6L833.2,309.6z"/>
<path id="path3077" class="st3" d="M936.3,346.7c11.7-0.1,21.4-3.3,28.9-9.6c7.5-6.3,11.4-15.2,11.6-26.8
	c-0.3-11.6-4.1-20.6-11.6-26.9c-7.5-6.3-17.1-9.5-28.9-9.6c-11.7,0.1-21.4,3.3-28.9,9.6c-7.5,6.3-11.4,15.3-11.6,26.9
	c0.3,11.6,4.1,20.5,11.6,26.8C914.9,343.5,924.5,346.7,936.3,346.7z M936.3,329.9c-5.5-0.2-9.5-2.1-12-5.9
	c-2.5-3.8-3.7-8.3-3.7-13.6c0-5.4,1.2-10,3.7-13.7c2.5-3.8,6.5-5.7,12-5.9c5.5,0.2,9.5,2.1,12,5.9c2.5,3.8,3.7,8.4,3.7,13.7
	c0,5.3-1.2,9.9-3.7,13.6C945.8,327.8,941.8,329.7,936.3,329.9z"/>
<path id="path3079" class="st3" d="M1037.4,274.7c-1.2-0.2-2.5-0.4-3.9-0.6c-1.4-0.2-2.8-0.2-4.2-0.3c-5.2,0.1-9.4,1.4-12.7,3.9
	c-3.3,2.6-5.9,6.1-7.9,10.5h-0.3v-12.8h-21.9v69.7h24.1v-29.4c0-6.9,1.5-12.2,4.5-16c3-3.8,7.3-5.7,13-5.8c1.4,0,2.8,0,4.1,0.1
	c1.4,0.1,2.7,0.3,4,0.7L1037.4,274.7z"/>
<path id="path3081" class="st3" d="M1113,317.3v-4.4c0.1-10.7-2.5-19.8-7.9-27.3c-5.4-7.5-14.5-11.4-27.3-11.7
	c-11,0.1-20,3.3-26.8,9.6c-6.8,6.3-10.3,15.2-10.5,26.8c0.3,11.6,4.1,20.5,11.6,26.9c7.5,6.3,17.1,9.5,28.9,9.6
	c4.5,0,8.9-0.3,13.2-1.1c4.3-0.7,8.4-1.8,12.3-3.4v-17c-3.6,1.9-7.3,3.3-10.9,4.1c-3.6,0.8-7.1,1.2-10.4,1.2c-5.9,0-10.6-1-14.1-3.1
	c-3.5-2.1-5.6-5.5-6.3-10.3L1113,317.3z M1064.6,303.7c0.2-4.1,1.5-7.5,3.6-10.3c2.2-2.7,5.4-4.2,9.7-4.3c4.8,0.1,8.2,1.5,10.3,4.3
	c2.1,2.7,3.1,6.2,3.1,10.3H1064.6z"/>
<path id="path3064" class="st3" d="M318.5,345.9c-10.5-2.8-18.4-7.5-25.2-14.9c-6.7-7.3-9.8-14-11.6-25.7
	c-3.6-23.2,6.5-44.5,25.5-53.8c9.7-4.7,22.8-7.1,35.7-7.1c8.1,0,15.1,1.3,21.9,2.6l-2.2,20.8c0,0-1.7-0.4-6.3-1.6
	c-4.5-1.2-9.1-1.7-13.6-1.7c-9.1,0.1-17.7,2.4-23.4,6.8c-13.6,10.4-13.4,37.6,0.4,49c8.5,7,23.9,9.4,37.7,5.8l6.5-1.7l1.9,21.1
	c-4,0.9-12.6,2.6-23,2.6C329.3,348.1,324.9,347.6,318.5,345.9z"/>
</svg>
